{
  "title": "Rock Of Ages 2012 DVDRIP XviD-MAXIMUS",
  "uid": 7673833,
  "size": 846463871,
  "categoryP": "video",
  "categoryS": "movies",
  "magnet": "?xt=urn:btih:4a72e0596df56946dcdbeae1d6ddfb55ca997b52&amp;dn=Rock+Of+Ages+2012+DVDRIP+XviD-MAXIMUS&amp;tr=udp%3A%2F%2Ftracker.openbittorrent.com%3A80&amp;tr=udp%3A%2F%2Fopen.demonii.com%3A1337&amp;tr=udp%3A%2F%2Ftracker.coppersurfer.tk%3A6969&amp;tr=udp%3A%2F%2Fexodus.desync.com%3A6969",
  "seeders": 54,
  "leechers": 4,
  "uploader": "Hackulus",
  "files": -1,
  "time": 1348646293,
  "description": "Complete name                            : CRock Of Ages 2012 DVDRIP XviD-MAXIMUSRock Of Ages 2012 DVDRIP XviD-MAXIMUS.avi\nFormat                                   : AVI\nFormat/Info                              : Audio Video Interleave\nFile size                                : 807 MiB\nDuration                                 : 2h 1mn\nOverall bit rate                         : 933 Kbps\nWriting application                      : VirtualDubMod 1.5.10.2 (build 2540/release)\nWriting library                          : VirtualDubMod build 2540/release\n\nVideo\nID                                       : 0\nFormat                                   : MPEG-4 Visual\nFormat profile                           : Advanced Simple@L5\nFormat settings, BVOP                    : 2\nFormat settings, QPel                    : No\nFormat settings, GMC                     : No warppoints\nFormat settings, Matrix                  : Default (H.263)\nMuxing mode                              : Packed bitstream\nCodec ID                                 : XVID\nCodec ID/Hint                            : XviD\nDuration                                 : 2h 1mn\nBit rate                                 : 795 Kbps\nWidth                                    : 608 pixels\nHeight                                   : 256 pixels\nDisplay aspect ratio                     : 2.40:1\nFrame rate                               : 23.976 fps\nColor space                              : YUV\nChroma subsampling                       : 4:2:0\nBit depth                                : 8 bits\nScan type                                : Progressive\nCompression mode                         : Lossy\nBits/(Pixel*Frame)                       : 0.213\nStream size                              : 688 MiB (85%)\nWriting library                          : XviD 64\n\nAudio\nID                                       : 1\nFormat                                   : MPEG Audio\nFormat version                           : Version 1\nFormat profile                           : Layer 3\nCodec ID                                 : 55\nCodec ID/Hint                            : MP3\nDuration                                 : 2h 1mn\nBit rate mode                            : Constant\nBit rate                                 : 128 Kbps\nChannel(s)                               : 2 channels\nSampling rate                            : 44.1 KHz\nCompression mode                         : Lossy\nStream size                              : 111 MiB (14%)\nAlignment                                : Split accross interleaves\nInterleave, duration                     : 42 ms (1.00 video frame)\nInterleave, preload duration             : 500 ms\nWriting library                          : LAME3.98.4\n\n",
  "parsed": {
    "xt": "urn:btih:4a72e0596df56946dcdbeae1d6ddfb55ca997b52",
    "dn": "Rock Of Ages 2012 DVDRIP XviD-MAXIMUS",
    "tr": [
      "udp://exodus.desync.com:6969",
      "udp://open.demonii.com:1337",
      "udp://tracker.coppersurfer.tk:6969",
      "udp://tracker.openbittorrent.com:80"
    ],
    "infoHash": "4a72e0596df56946dcdbeae1d6ddfb55ca997b52",
    "infoHashBuffer": {
      "type": "Buffer",
      "data": [
        74,
        114,
        224,
        89,
        109,
        245,
        105,
        70,
        220,
        219,
        234,
        225,
        214,
        221,
        251,
        85,
        202,
        153,
        123,
        82
      ]
    },
    "name": "Rock Of Ages 2012 DVDRIP XviD-MAXIMUS",
    "announce": [
      "udp://exodus.desync.com:6969",
      "udp://open.demonii.com:1337",
      "udp://tracker.coppersurfer.tk:6969",
      "udp://tracker.openbittorrent.com:80"
    ],
    "urlList": []
  },
  "previous": 6,
  "peers": 12,
  "last_updated": "2016-12-26T23:26:39.102Z"
}